<?xml version="1.0" encoding="UTF-8" standalone="no"?>
<!-- Created with Inkscape (http://www.inkscape.org/) -->

<svg
   width="1693.1063"
   height="420.00015"
   viewBox="0 0 1693.1064 420.00015"
   version="1.1"
   id="svg1"
   xml:space="preserve"
   xmlns:xlink="http://www.w3.org/1999/xlink"
   xmlns="http://www.w3.org/2000/svg"
   xmlns:svg="http://www.w3.org/2000/svg"><defs
     id="defs1"><rect
       x="1266.2435"
       y="733.70386"
       width="393.16687"
       height="92.005379"
       id="rect7" /><color-profile
       name="sRGB-IEC61966-2.1"
       xlink:href="../../../../../../WINDOWS/system32/spool/drivers/color/sRGB%20Color%20Space%20Profile.icm"
       id="color-profile1" /><color-profile
       name="Agfa-:-Swop-Standard"
       xlink:href="../../../../../../WINDOWS/system32/spool/drivers/color/RSWOP.icm"
       id="color-profile2" /><color-profile
       name="sRGB-IEC61966-2.1"
       xlink:href="../../../../../../WINDOWS/system32/spool/drivers/color/sRGB%20Color%20Space%20Profile.icm"
       id="color-profile3" /></defs><g
     id="g213"
     transform="translate(-13078.594,3115.4238)"><path
       id="path645"
       style="font-size:42.6667px;white-space:pre;shape-inside:url(#rect7);fill:#000000;fill-opacity:1;stroke:#000000;stroke-width:4;stroke-dasharray:none;stroke-opacity:1"
       d="m 14614.093,-2863.1336 v 9.0096 h 68.619 v -9.0096 z m 0,-45.4729 v 9.0096 h 68.619 v -9.0099 z m -0.03,-43.9511 v 9.0095 h 68.619 v -9.0095 z m -230.1,0 v 98.4804 h 10.574 v -98.4804 z m 31.826,0 v 98.4804 h 10.574 v -79.856 l 64.333,79.856 h 8.717 v -98.4804 h -10.431 v 79.8688 l -64.47,-79.8688 z m 100.494,0 v 9.0095 h 35.167 v 89.4709 h 10.581 v -89.4709 h 35.167 v -9.0095 z m 186.8,0 v 98.4804 h 66.617 v -9.0032 h -56.035 v -89.4772 z m -467.306,89.424 v 9.0096 h 68.619 v -9.0096 z m 0,-45.4729 v 9.0096 h 68.619 v -9.0099 z m -0.03,-43.9511 v 9.0095 h 68.62 v -9.0095 z m -256.581,-0.8437 c -7.529,0 -14.484,1.2673 -20.869,3.7996 -6.385,2.4385 -11.961,5.9116 -16.726,10.4135 -4.67,4.5019 -8.338,9.7976 -11.007,15.8939 -2.573,6.0963 -3.861,12.7551 -3.861,19.9769 0,7.2217 1.288,13.8805 3.861,19.9768 2.669,6.0963 6.337,11.3985 11.007,15.9004 4.67,4.5018 10.197,8.0163 16.582,10.5487 6.386,2.4385 13.346,3.6579 20.875,3.6579 7.339,0 14.195,-1.2194 20.581,-3.6579 6.385,-2.4385 11.773,-6.0489 16.157,-10.8321 l -6.721,-6.6139 c -4.098,4.1267 -8.623,7.1338 -13.578,9.0096 -4.956,1.8758 -10.295,2.8078 -16.013,2.8078 -6.004,0 -11.58,-0.9799 -16.727,-2.9495 -5.146,-2.0634 -9.622,-4.9268 -13.434,-8.5845 -3.812,-3.7516 -6.819,-8.0673 -9.011,-12.9444 -2.097,-4.9707 -3.141,-10.4103 -3.141,-16.3189 0,-5.9087 1.044,-11.3003 3.141,-16.1773 2.192,-4.9708 5.199,-9.2866 9.011,-12.9444 3.812,-3.7515 8.288,-6.6085 13.434,-8.5781 5.147,-2.0633 10.723,-3.0976 16.727,-3.0976 5.718,0 11.057,0.9386 16.013,2.8143 4.955,1.782 9.48,4.7347 13.578,8.8614 l 6.721,-6.6074 c -4.384,-4.7833 -9.772,-8.3521 -16.157,-10.6969 -6.386,-2.4385 -13.2,-3.6579 -20.443,-3.6579 z m 123.233,73.0167 11.963,26.3074 h 11.15 l -45.741,-98.4804 h -10.438 l -45.748,98.4804 h 11.006 l 11.963,-26.3074 3.841,-8.4428 24.082,-52.9626 24.081,52.9626 z m 35.914,-13.9285 v 40.2359 h 10.582 v -31.0924 h 26.875 c 8.482,0 15.771,-1.3566 21.87,-4.0765 6.1,-2.7198 10.77,-6.5696 14.011,-11.5404 3.335,-5.0646 4.999,-11.0659 4.999,-18.0062 0,-7.128 -1.664,-13.1771 -4.999,-18.1479 -3.241,-5.0647 -7.911,-8.908 -14.011,-11.5341 -6.099,-2.7199 -13.388,-4.0829 -21.87,-4.0829 h -37.457 v 9.0095 h 37.17 c 10.006,0 17.58,2.1515 22.726,6.4658 5.242,4.3143 7.866,10.4113 7.866,18.2896 0,7.7844 -2.624,13.8336 -7.866,18.1478 -5.146,4.2206 -12.72,6.3301 -22.726,6.3306 z m -382.857,-14.2927 v 54.5296 h 40.742 c 10.674,0 20.01,-2.0622 28.014,-6.1889 8.101,-4.2205 14.394,-10.0366 18.873,-17.4459 4.48,-7.4094 6.721,-15.9452 6.721,-25.6054 0,-9.6603 -2.241,-18.1961 -6.721,-25.6055 -4.479,-7.4093 -10.772,-13.1775 -18.873,-17.3042 -8.004,-4.2205 -17.34,-6.3305 -28.014,-6.3305 h -40.742 v 9.0095 l 40.166,2e-4 c 8.864,0 16.541,1.7333 23.022,5.2035 6.576,3.3764 11.671,8.0625 15.293,14.0649 3.621,6.0026 5.431,12.9901 5.431,20.9622 0,7.8783 -1.81,14.8659 -5.431,20.9622 -3.622,6.0025 -8.717,10.7429 -15.293,14.2131 -6.481,3.3764 -14.158,5.0618 -23.022,5.0618 h -29.591 v -45.5266 z m -88.048,45.4732 v 9.0096 h 68.619 v -9.0096 z m 0,-45.4729 v 9.0096 h 68.619 v -9.0099 z m -97.71,-43.9511 v 9.0417 l 37.17,-0.033 c 10.007,-0.01 17.581,2.1515 22.727,6.4658 5.242,4.3143 7.866,10.4112 7.866,18.2896 0,7.7844 -2.624,13.8335 -7.866,18.1478 -5.146,4.3144 -12.72,6.484 -22.727,6.471 h -37.169 v 40.0965 h 10.582 v -31.2339 h 26.876 c 2.837,0 5.34,-0.363 7.911,-0.6569 l 22.963,31.8908 h 11.582 l -24.461,-33.7777 c 1.329,-0.4233 2.642,-0.8607 3.874,-1.3911 6.1,-2.7198 10.77,-6.5696 14.011,-11.5404 3.335,-5.0646 4.999,-11.0659 4.999,-18.0062 0,-7.128 -1.664,-13.1771 -4.999,-18.148 -3.241,-5.0646 -7.911,-8.9079 -14.011,-11.534 -6.099,-2.7199 -13.388,-4.0829 -21.869,-4.0829 z m 97.682,0 v 9.0095 h 68.619 v -9.0095 z m -586.577,163.3635 -0.208,-234.5131 203.565,-89.5275 201.656,91.2934 -0.03,233.9321 -202.413,90.392 z m 195.264,-137.5713 -182.433,-83.3396 0.545,106.0631 57.037,29.3524 c 3.464,1.7822 2.276,14.6635 -7.344,12.7447 l -49.928,-25.0585 -0.361,40.6355 c 0,0 88.624,42.5899 89.773,44.1412 5.264,7.1136 -2.732,14.4414 -7.278,12.3434 l -82.513,-39.8175 0.12,33.2433 182.124,79.8612 z m 196.391,128.9858 -0.09,-208.498 -182.63,79.4002 0.366,208.7827 z m -10.625,-221.0599 -178.937,-81.0875 -178.52,81.3159 178.31,79.5028 z m -125.475,92.9025 0.02,15.1471 45.289,-19.6927 c 12.111,-5.2684 21.257,-5.6395 27.463,-1.1646 6.31,4.4181 9.469,13.1589 9.474,26.2265 0,12.9091 -3.144,24.3292 -9.445,34.2696 -6.195,9.9031 -15.331,17.5548 -27.434,22.8965 l -45.255,20.0544 0.07,67.0312 12.924,-5.8272 -0.05,-52.1335 32.668,-14.5325 c 3.434,-1.5279 6.462,-3.4782 9.569,-5.3488 l 27.676,40.5157 13.876,-6.2566 -29.387,-42.8021 c 1.6,-1.4135 3.182,-2.8421 4.664,-4.3806 7.333,-7.7663 12.939,-16.6323 16.824,-26.5869 3.994,-10.1521 5.984,-20.9671 5.981,-32.4601 0,-11.8059 -2,-20.9578 -6.002,-27.4564 -3.893,-6.7104 -9.508,-10.6557 -16.851,-11.8398 -7.356,-1.3422 -16.161,0.1929 -26.43,4.6274 z" /></g></svg>
