<?xml version="1.0" encoding="UTF-8" standalone="no"?>
<!-- Created with Inkscape (http://www.inkscape.org/) -->

<svg
   width="1692.4883"
   height="820.3808"
   viewBox="0 0 1692.4884 820.3808"
   version="1.1"
   id="svg1"
   xml:space="preserve"
   xmlns:xlink="http://www.w3.org/1999/xlink"
   xmlns="http://www.w3.org/2000/svg"
   xmlns:svg="http://www.w3.org/2000/svg"><defs
     id="defs1"><color-profile
       name="sRGB-IEC61966-2.1"
       xlink:href="../../../../../../WINDOWS/system32/spool/drivers/color/sRGB%20Color%20Space%20Profile.icm"
       id="color-profile1" /><color-profile
       name="Agfa-:-Swop-Standard"
       xlink:href="../../../../../../WINDOWS/system32/spool/drivers/color/RSWOP.icm"
       id="color-profile2" /><color-profile
       name="sRGB-IEC61966-2.1"
       xlink:href="../../../../../../WINDOWS/system32/spool/drivers/color/sRGB%20Color%20Space%20Profile.icm"
       id="color-profile3" /></defs><g
     id="g170"
     transform="translate(-13045.62,2699.0775)"><path
       id="path625"
       style="fill:#000000;fill-opacity:1;stroke:#000000;stroke-width:3.99999;stroke-dasharray:none;stroke-opacity:1"
       d="m 13048.03,-2060.6021 -0.409,-460.2141 399.351,-175.6908 395.606,179.1562 -0.07,459.074 -397.09,177.3873 z m 383.066,-269.9731 -357.893,-163.5477 1.069,208.1406 111.894,57.602 c 6.794,3.4974 4.464,28.7759 -14.409,25.0105 l -97.948,-49.1754 -0.707,79.744 c 0,0 173.862,83.5795 176.114,86.6238 10.328,13.9598 -5.359,28.34 -14.277,24.223 l -161.873,-78.1388 0.237,65.2375 357.287,156.7214 z m 385.277,253.1246 -0.184,-409.1612 -358.281,155.8168 0.717,409.72 z m -20.843,-433.8131 -351.036,-159.128 -350.219,159.5762 349.805,156.0183 z m -246.156,182.314 0.03,29.725 88.847,-38.6453 c 23.76,-10.3389 41.702,-11.0672 53.877,-2.2855 12.38,8.6701 18.575,25.8233 18.585,51.4675 0,25.3332 -6.167,47.7441 -18.529,67.2515 -12.153,19.434 -30.075,34.45 -53.819,44.9326 l -88.779,39.3553 0.144,131.5436 25.354,-11.4355 -0.101,-102.3081 64.088,-28.5188 c 6.738,-2.9983 12.677,-6.8258 18.772,-10.4966 l 54.295,79.5089 27.222,-12.278 -57.651,-83.9959 c 3.14,-2.774 6.242,-5.5775 9.149,-8.5967 14.387,-15.2407 25.385,-32.6395 33.005,-52.1747 7.837,-19.9227 11.741,-41.1464 11.734,-63.7004 0,-23.1683 -3.923,-41.1282 -11.774,-53.881 -7.637,-13.1688 -18.653,-20.9111 -33.058,-23.2347 -14.431,-2.634 -31.706,0.3783 -51.85,9.0808 z m 864.819,422.9218 v 18.9588 l 141.956,-10e-5 v -18.9587 z m 0,-95.6886 v 18.9588 h 141.956 v -18.9595 z m -0.06,-92.4863 v 18.9588 l 141.957,-10e-5 v -18.9587 z m -476.019,0 v 207.2321 h 21.877 v -207.2321 z m 65.84,0 v 207.2321 h 21.877 v -168.0407 l 133.089,168.0407 h 18.032 v -207.2321 h -21.579 v 168.0678 L 14022,-2094.2028 Z m 207.898,0 v 18.9587 h 72.752 v 188.2734 h 21.89 v -188.2734 h 72.752 v -18.9587 z m 386.443,0 v 207.2321 h 137.813 v -18.9453 h -115.922 v -188.2868 z m -20.788,-113.2622 v 18.9588 l 141.956,-1e-4 v -18.9587 z m 0,-95.6886 v 18.9588 h 141.956 v -18.9595 z m -0.06,-92.4863 v 18.9588 l 141.956,-1e-4 v -18.9587 z m -530.803,-1.7753 c -15.576,0 -29.963,2.6668 -43.172,7.9955 -13.209,5.1314 -24.744,12.4398 -34.602,21.913 -9.661,9.4733 -17.251,20.6171 -22.771,33.4455 -5.323,12.8285 -7.987,26.8405 -7.987,42.0374 0,15.1965 2.664,29.2087 7.987,42.0372 5.52,12.8284 13.11,23.9857 22.771,33.4591 9.66,9.4731 21.095,16.8688 34.304,22.1975 13.21,5.1314 27.61,7.6974 43.185,7.6974 15.182,0 29.366,-2.566 42.576,-7.6974 13.21,-5.1313 24.355,-12.7285 33.425,-22.7938 l -13.904,-13.9176 c -8.477,8.6838 -17.838,15.0116 -28.09,18.9588 -10.252,3.9472 -21.297,5.9085 -33.127,5.9085 -12.42,0 -23.956,-2.0621 -34.602,-6.2067 -10.647,-4.3419 -19.907,-10.3674 -27.793,-18.0643 -7.886,-7.8944 -14.107,-16.9761 -18.641,-27.2389 -4.338,-10.4599 -6.498,-21.9063 -6.498,-34.3398 0,-12.4338 2.16,-23.7792 6.498,-34.0418 4.534,-10.4602 10.755,-19.5418 18.641,-27.2389 7.886,-7.8943 17.146,-13.9062 27.793,-18.0508 10.646,-4.342 22.182,-6.5184 34.602,-6.5184 11.83,0 22.875,1.9751 33.127,5.9221 10.252,3.7499 19.613,9.9634 28.09,18.6471 l 13.904,-13.904 c -9.07,-10.0654 -20.215,-17.5753 -33.425,-22.5093 -13.21,-5.1314 -27.308,-7.6974 -42.291,-7.6974 z m 254.939,153.6488 24.747,55.3586 h 23.068 l -94.628,-207.2321 h -21.593 l -94.641,207.2321 h 22.769 l 24.747,-55.3586 7.947,-17.7662 49.819,-111.4489 49.818,111.4489 z m 74.297,-29.3097 v 84.6683 h 21.89 v -65.4275 h 55.599 c 17.547,0 32.625,-2.8548 45.243,-8.5782 12.618,-5.7234 22.281,-13.8245 28.984,-24.2846 6.901,-10.6573 10.343,-23.2859 10.343,-37.8904 0,-14.9994 -3.442,-27.7285 -10.343,-38.1886 -6.703,-10.6575 -16.366,-18.745 -28.984,-24.2711 -12.618,-5.7234 -27.696,-8.5917 -45.243,-8.5917 h -77.489 v 18.9588 l 76.894,-1e-4 c 20.701,0 36.37,4.5274 47.016,13.6059 10.844,9.0786 16.272,21.9085 16.272,38.4868 0,16.3807 -5.428,29.11 -16.272,38.1885 -10.646,8.8813 -26.315,13.3203 -47.016,13.3213 z m -53.481,-331.5135 v 114.7465 h 84.286 c 22.081,0 41.395,-4.3394 57.954,-13.0232 16.759,-8.8812 29.777,-21.12 39.044,-36.7115 9.266,-15.5914 13.902,-33.5534 13.902,-53.8813 0,-20.3282 -4.636,-38.29 -13.902,-53.8815 -9.267,-15.5915 -22.285,-27.7295 -39.044,-36.4133 -16.559,-8.8811 -35.873,-13.3213 -57.954,-13.3213 h -84.286 v 18.9588 l 83.094,3e-4 c 18.336,1e-4 34.219,3.6474 47.626,10.9498 13.604,7.1049 24.146,16.9659 31.638,29.5968 7.492,12.6311 11.236,27.335 11.236,44.1107 0,16.5781 -3.744,31.2822 -11.236,44.1106 -7.492,12.6311 -18.034,22.6064 -31.638,29.9085 -13.407,7.105 -29.29,10.6516 -47.626,10.6516 h -61.217 v -95.8015 z m -182.149,95.6893 v 18.9588 l 141.956,-1e-4 v -18.9587 z m 0,-95.6886 v 18.9588 h 141.956 v -18.9595 z m -202.138,-92.4863 v 19.0265 l 76.897,-0.07 c 20.702,-0.021 36.37,4.5274 47.016,13.6059 10.844,9.0786 16.273,21.9085 16.273,38.4868 0,16.3807 -5.429,29.11 -16.273,38.1885 -10.646,9.0787 -26.314,13.6442 -47.016,13.6169 h -76.894 v 84.375 h 21.891 v -65.7256 h 55.599 c 5.87,0 11.049,-0.7638 16.367,-1.3822 l 47.504,67.1078 h 23.961 l -50.603,-71.0784 c 2.749,-0.8907 5.466,-1.8112 8.014,-2.9272 12.618,-5.7234 22.281,-13.8245 28.984,-24.2846 6.9,-10.6574 10.342,-23.286 10.342,-37.8904 0,-14.9994 -3.442,-27.7285 -10.342,-38.1886 -6.703,-10.6575 -16.366,-18.745 -28.984,-24.2711 -12.618,-5.7234 -27.696,-8.5917 -45.243,-8.5917 z m 202.079,0 v 18.9588 l 141.957,-1e-4 v -18.9587 z" /></g></svg>
