<?xml version="1.0" encoding="UTF-8" standalone="no"?>
<!-- Created with Inkscape (http://www.inkscape.org/) -->

<svg
   width="189.7334"
   height="189.73096"
   viewBox="0 0 189.7334 189.73096"
   version="1.1"
   id="svg1"
   xml:space="preserve"
   xmlns="http://www.w3.org/2000/svg"
   xmlns:svg="http://www.w3.org/2000/svg"><defs
     id="defs1" /><g
     id="layer1"
     transform="translate(-6708.5357,-2480.6797)"><path
       d="m 6866.4366,2613.4922 0.7905,0.7905 c 3.6477,3.6787 8.9252,5.2331 13.9845,4.1187 4.9767,-1.0446 9.0791,-4.5512 10.8856,-9.3046 4.3647,-11.4603 6.4511,-23.6622 6.1424,-35.9217 -1.8445,-49.9249 -41.6388,-90.1074 -91.5434,-92.4367 -53.6524,-1.8656 -98.1613,41.1235 -98.1602,94.8083 0.061,52.3665 42.4973,94.8027 94.8637,94.8637 2.672,0 5.2966,-0.1739 7.9053,-0.3953 4.1047,-0.3459 7.2558,-3.786 7.2413,-7.9053 l -0.253,-28.3642 c -0.1309,-11.465 6.6932,-21.8678 17.2619,-26.3139 10.5686,-4.4461 22.777,-2.0502 30.8814,6.0605 z"
       id="path64"
       style="fill:#50c878;fill-opacity:1;stroke-width:21.3333" /><path
       d="m 6843.1792,2544.3208 c 4.6353,-1.23 9.5552,0.4532 12.4656,4.2647 2.9104,3.8115 3.2382,9.0008 0.8308,13.1486 -2.4072,4.1477 -7.0756,6.4373 -11.8288,5.801 -4.7533,-0.6363 -8.6553,-4.0732 -9.8868,-8.7081 -1.682,-6.3308 2.0878,-12.8262 8.4192,-14.5062 z m -72.966,70.3572 c -10.2108,2.7094 -18.5986,-8.2776 -13.2965,-17.4133 2.4073,-4.1478 7.0757,-6.4374 11.8289,-5.8011 4.7532,0.6363 8.6553,4.0732 9.8867,8.7082 1.6821,6.3308 -2.0878,12.8262 -8.4191,14.5062 z m 0,-47.4318 c -10.2108,2.7093 -18.5986,-8.2777 -13.2965,-17.4134 2.4073,-4.1477 7.0757,-6.4373 11.8289,-5.801 4.7532,0.6363 8.6553,4.0732 9.8867,8.7081 1.6821,6.3308 -2.0878,12.8263 -8.4191,14.5063 z m 39.5265,-23.716 c -10.2108,2.7094 -18.5987,-8.2776 -13.2965,-17.4133 2.4073,-4.1477 7.0757,-6.4373 11.8289,-5.801 4.7532,0.6363 8.6553,4.0732 9.8868,8.7081 1.682,6.3308 -2.0878,12.8262 -8.4192,14.5062 z"
       id="path65"
       style="fill:#277c43;fill-opacity:1;stroke-width:21.3333" /></g></svg>
