<?xml version="1.0" encoding="UTF-8" standalone="no"?>
<!-- Created with Inkscape (http://www.inkscape.org/) -->

<svg
   width="135.47102mm"
   height="135.4689mm"
   viewBox="0 0 512.01648 512.00846"
   version="1.1"
   id="svg1"
   xml:space="preserve"
   xmlns:inkscape="http://www.inkscape.org/namespaces/inkscape"
   xmlns:sodipodi="http://sodipodi.sourceforge.net/DTD/sodipodi-0.dtd"
   xmlns="http://www.w3.org/2000/svg"
   xmlns:svg="http://www.w3.org/2000/svg"><sodipodi:namedview
     id="namedview1"
     pagecolor="#ffffff"
     bordercolor="#000000"
     borderopacity="0.25"
     inkscape:showpageshadow="2"
     inkscape:pageopacity="0.0"
     inkscape:pagecheckerboard="0"
     inkscape:deskcolor="#ffffff"
     inkscape:document-units="mm"
     inkscape:zoom="0.69550065"
     inkscape:cx="1774.2615"
     inkscape:cy="754.13301"
     inkscape:window-width="1366"
     inkscape:window-height="705"
     inkscape:window-x="-8"
     inkscape:window-y="-8"
     inkscape:window-maximized="1"
     inkscape:current-layer="layer6" /><defs
     id="defs1" /><g
     inkscape:groupmode="layer"
     id="layer7"
     inkscape:label="Layer 7"
     transform="translate(-922.06008,547.14898)"><path
       d="m 1348.172,-188.74047 2.1334,2.13333 c 9.8435,9.92742 24.0856,14.12194 37.7386,11.11467 13.4301,-2.81898 24.5008,-12.28177 29.376,-25.10934 11.7785,-30.92701 17.409,-63.85516 16.576,-96.93866 -4.9777,-134.72777 -112.3669,-243.16487 -247.04,-249.45068 -144.7868,-5.03438 -264.89894,110.97626 -264.89594,255.85068 0.1646,141.31665 114.68344,255.835347 255.99994,255.999947 7.2107,0 14.2934,-0.4693 21.3334,-1.0666 11.0771,-0.9337 19.5806,-10.2171 19.5413,-21.3334 l -0.6827,-76.543947 c -0.3533,-30.93957 18.0625,-59.01253 46.5831,-71.01084 28.5205,-11.9983 61.4664,-5.53269 83.3369,16.35484 z"
       id="path1"
       style="fill:#9bc0fb;fill-opacity:1;stroke-width:21.3333"
       sodipodi:nodetypes="cccccccccccsc"
       inkscape:label="light" /><path
       d="m 1285.4093,-375.40714 c 12.509,-3.31919 25.7858,1.22311 33.6398,11.50893 7.854,10.28579 8.7386,24.28962 2.2422,35.48281 -6.4963,11.19319 -19.0944,17.37191 -31.9215,15.65478 -12.8271,-1.71713 -23.3573,-10.99196 -26.6805,-23.49986 -4.5391,-17.08442 5.6341,-34.61301 22.72,-39.14666 z m -196.9067,189.86667 c -27.5548,7.3115 -50.1904,-22.33811 -35.8819,-46.99174 6.4963,-11.19319 19.0944,-17.3719 31.9214,-15.65478 12.8271,1.71713 23.3573,10.99196 26.6805,23.49985 4.5392,17.08442 -5.6341,34.61297 -22.72,39.14667 z m 0,-128 c -27.5548,7.31155 -50.1904,-22.33811 -35.8819,-46.99174 6.4963,-11.19319 19.0944,-17.3719 31.9214,-15.65478 12.8271,1.71713 23.3573,10.99196 26.6805,23.49985 4.5392,17.08442 -5.6341,34.61302 -22.72,39.14667 z m 106.6667,-64.00001 c -27.5549,7.31155 -50.1906,-22.33811 -35.882,-46.99174 6.4963,-11.19319 19.0944,-17.37191 31.9215,-15.65478 12.8271,1.71713 23.3573,10.99196 26.6805,23.49986 4.5391,17.08442 -5.6341,34.61301 -22.72,39.14666 z"
       id="path34"
       style="fill:#3d82f6;fill-opacity:1;stroke-width:21.3333"
       sodipodi:nodetypes="sssssssssssssssssssss"
       inkscape:label="dark" /></g></svg>
