<?xml version="1.0" encoding="UTF-8" standalone="no"?>
<!-- Created with Inkscape (http://www.inkscape.org/) -->

<svg
   width="189.7334"
   height="157.3457"
   viewBox="0 0 189.7334 157.3457"
   version="1.1"
   id="svg1"
   xml:space="preserve"
   xmlns="http://www.w3.org/2000/svg"
   xmlns:svg="http://www.w3.org/2000/svg"><defs
     id="defs1" /><g
     id="layer1"
     transform="translate(-6328.7964,-2840.8061)"><path
       id="path66"
       style="fill:#50c878;fill-opacity:1;stroke:none;stroke-width:0.999999;stroke-opacity:1"
       d="m 6385.5986,2840.8061 c -15.8418,0 -28.5952,12.7534 -28.5952,28.5952 v 61.8287 c 0,15.8419 12.7534,28.5953 28.5952,28.5953 h 104.3357 c 15.8418,0 28.5952,-12.7534 28.5952,-28.5953 v -61.8287 c 0,-15.8418 -12.7534,-28.5952 -28.5952,-28.5952 z m 16.2174,16.1282 a 14.365318,14.365318 0 0 1 14.3659,14.3645 14.365318,14.365318 0 0 1 -14.3659,14.3659 14.365318,14.365318 0 0 1 -14.3659,-14.3659 14.365318,14.365318 0 0 1 14.3659,-14.3645 z" /><path
       id="path67"
       style="fill:#277c43;fill-opacity:1;stroke-width:0.999999"
       d="m 6346.5715,2878.36 c -0.075,7.3555 -0.6264,61.4 -0.7727,75.7393 -0.1463,14.3393 16.6341,22.3761 19.3212,22.4127 2.6872,0.036 104.3262,1.4194 113.609,1.5457 9.2828,0.1263 9.6699,20.0941 0,20.0941 -9.6699,0 -106.6534,0 -106.6534,0 -23.9769,0 -43.2796,-19.3027 -43.2796,-43.2796 0,0 0,-68.7744 0,-76.5122 0,-7.7378 17.8505,-7.3553 17.7755,0 z" /><path
       id="path68"
       style="fill:#277c43;fill-opacity:1;stroke-width:1.31551"
       d="m 1279.0789,963.05231 0.8,-0.0571 a 10.99886,10.99886 29.033414 0 1 10.5087,5.8331 l 28.0627,53.11843 a 15.331494,15.331494 93.061314 0 1 -0.8412,15.7284 l -0.036,0.053 a 13.979434,13.979434 151.68668 0 1 -11.4479,6.1675 l -100.5204,1.0473 a 11.309109,11.309109 31.032251 0 1 -10.1638,-6.1148 12.464487,12.464487 96.882283 0 1 1.5701,-13.0081 l 32.073,-44.01876 9.273,12.36401 a 7.405825,7.405825 179.75718 0 0 11.8868,-0.0504 l 18.8247,-25.54787 a 13.640949,13.640949 151.14942 0 1 10.0099,-5.51449 z"
       transform="matrix(0.76016475,0,0,0.76016475,5482.5942,2148.2594)" /></g></svg>
