<?xml version="1.0" encoding="UTF-8" standalone="no"?>
<!-- Created with Inkscape (http://www.inkscape.org/) -->

<svg
   width="187.16504"
   height="189.7334"
   viewBox="0 0 187.16504 189.7334"
   version="1.1"
   id="svg1"
   xml:space="preserve"
   xmlns="http://www.w3.org/2000/svg"
   xmlns:svg="http://www.w3.org/2000/svg"><defs
     id="defs1" /><g
     id="layer1"
     transform="translate(-6325.8853,-2486.0137)"><path
       style="fill:#277c43;fill-opacity:1;stroke:none;stroke-width:3.13611;stroke-opacity:1"
       id="path72"
       width="281.12863"
       height="75.430046"
       x="1092.7798"
       y="-682.60284"
       transform="matrix(0.2242731,0.22675263,-0.22904784,0.22179709,6051.1159,2501.0906)"
       d="m 1092.7798,-682.60284 h 261.962 a 19.166657,19.166657 45 0 1 19.1666,19.16665 v 39.42614 a 16.837247,16.837247 135 0 1 -16.8372,16.83725 h -264.2914 z" /><path
       id="path73"
       style="fill:#50c878;fill-opacity:1;stroke:none;stroke-width:0.999997;stroke-opacity:1"
       d="m 6396.6592,2486.0137 a 70.774158,70.774158 0 0 0 -70.7742,70.7741 70.774158,70.774158 0 0 0 70.7742,70.7742 70.774158,70.774158 0 0 0 70.7742,-70.7742 70.774158,70.774158 0 0 0 -70.7742,-70.7741 z m 0,22.3698 a 48.404052,48.404052 0 0 1 48.4043,48.4043 48.404052,48.404052 0 0 1 -48.4043,48.4037 48.404052,48.404052 0 0 1 -48.4036,-48.4037 48.404052,48.404052 0 0 1 48.4036,-48.4043 z" /></g></svg>
