<?xml version="1.0" encoding="UTF-8" standalone="no"?>
<!-- Created with Inkscape (http://www.inkscape.org/) -->

<svg
   width="119.54297"
   height="189.7334"
   viewBox="0 0 119.54297 189.7334"
   version="1.1"
   id="svg1"
   xml:space="preserve"
   xmlns="http://www.w3.org/2000/svg"
   xmlns:svg="http://www.w3.org/2000/svg"><defs
     id="defs1" /><g
     id="layer1"
     transform="translate(-6720.1558,-2814.9521)"><path
       id="path71"
       style="fill:#50c878;fill-opacity:1;stroke:none;stroke-width:2.74664;stroke-opacity:1"
       d="m 1449.3907,-114.4668 c -18.562,-4e-5 -33.6094,15.047409 -33.6094,33.609376 V 372.1211 c 6e-4,19.07591 15.4651,34.53954 34.541,34.53907 h 261.4981 c 17.8398,6.2e-4 32.3023,-14.46099 32.3027,-32.30079 V -80.626955 c -4e-4,-18.689822 -15.152,-33.840505 -33.8418,-33.839845 z m 86.4094,447.32618 h 89.2028 a 9.171028,9.171028 45 0 1 9.171,9.17103 v 15.40001 a 8.563732,8.563732 135 0 1 -8.5637,8.56373 h -89.3212 a 9.0525783,9.0525783 45 0 1 -9.0526,-9.05258 v -15.51846 a 8.5637316,8.5637316 135 0 1 8.5637,-8.56373 z"
       transform="matrix(0.36408301,0,0,0.36408301,6204.6936,2856.6273)" /><rect
       style="fill:#277c43;fill-opacity:1;stroke:none;stroke-width:0.999999;stroke-opacity:1"
       id="rect71"
       width="84.773163"
       height="137.26411"
       x="6737.7305"
       y="2829.1633" /></g></svg>
