<?xml version="1.0" encoding="UTF-8" standalone="no"?>
<!-- Created with Inkscape (http://www.inkscape.org/) -->

<svg
   width="135.46671mm"
   height="112.34234mm"
   viewBox="0 0 512.00016 424.60097"
   version="1.1"
   id="svg1"
   xml:space="preserve"
   xmlns:inkscape="http://www.inkscape.org/namespaces/inkscape"
   xmlns:sodipodi="http://sodipodi.sourceforge.net/DTD/sodipodi-0.dtd"
   xmlns="http://www.w3.org/2000/svg"
   xmlns:svg="http://www.w3.org/2000/svg"><sodipodi:namedview
     id="namedview1"
     pagecolor="#ffffff"
     bordercolor="#000000"
     borderopacity="0.25"
     inkscape:showpageshadow="2"
     inkscape:pageopacity="0.0"
     inkscape:pagecheckerboard="0"
     inkscape:deskcolor="#ffffff"
     inkscape:document-units="mm" /><defs
     id="defs1"><inkscape:path-effect
       effect="fillet_chamfer"
       id="path-effect27"
       is_visible="true"
       lpeversion="1"
       nodesatellites_param="F,0,0,1,0,6.2929139,0,1 @ F,0,0,1,0,7.1752435,0,1 @ F,0,0,1,0,9.178973,0,1 @ F,0,0,1,0,7.3444673,0,1 @ F,0,0,1,0,6.9653547,0,1 @ F,0,0,1,0,8.2397294,0,1 @ F,0,0,1,0,0,0,1 @ F,0,0,1,0,9.9620765,0,1"
       radius="0"
       unit="px"
       method="auto"
       mode="F"
       chamfer_steps="1"
       flexible="false"
       use_knot_distance="true"
       apply_no_radius="true"
       apply_with_radius="true"
       only_selected="false"
       hide_knots="false" /></defs><g
     inkscape:groupmode="layer"
     id="layer4"
     inkscape:label="Layer 4"
     transform="translate(-1626.4814,-1077.8345)"><path
       id="rect25"
       style="opacity:1;fill:#82e0d3;fill-opacity:1;stroke:none;stroke-width:0.999997;stroke-opacity:1"
       d="m 1779.7645,1077.8345 c -42.7495,0 -77.1647,34.4154 -77.1647,77.165 v 166.846 c 0,42.7498 34.4152,77.165 77.1647,77.165 h 281.5521 c 42.7495,0 77.1648,-34.4152 77.1648,-77.165 v -166.846 c 0,-42.7496 -34.4153,-77.165 -77.1648,-77.165 z m 43.7629,43.5225 a 38.765131,38.765131 0 0 1 38.7669,38.7628 38.765131,38.765131 0 0 1 -38.7669,38.7667 38.765131,38.765131 0 0 1 -38.7667,-38.7667 38.765131,38.765131 0 0 1 38.7667,-38.7628 z" /><path
       id="rect26"
       style="opacity:1;fill:#14b8a6;fill-opacity:1;stroke-width:1"
       d="m 1674.4491,1179.1747 c -0.2031,19.8488 -1.6905,165.6891 -2.0852,204.3842 -0.3949,38.6949 44.8874,60.3823 52.1386,60.481 7.2515,0.098 281.5265,3.8304 306.5764,4.1711 25.0499,0.341 26.0944,54.2245 0,54.2245 -26.0945,0 -287.8066,0 -287.8066,0 -64.7021,0 -116.7909,-52.0888 -116.7909,-116.791 0,0 0,-185.5892 0,-206.4698 0,-20.8806 48.1701,-19.8486 47.9677,0 z"
       sodipodi:nodetypes="zzzzzsszz" /><path
       id="path26"
       style="opacity:1;fill:#14b8a6;fill-opacity:1;stroke-width:0.487491"
       d="m 1279.0789,963.05231 0.8,-0.0571 a 10.99886,10.99886 29.033414 0 1 10.5087,5.8331 l 28.0627,53.11843 a 15.331494,15.331494 93.061314 0 1 -0.8412,15.7284 l -0.036,0.053 a 13.979434,13.979434 151.68668 0 1 -11.4479,6.1675 l -100.5204,1.0473 a 11.309109,11.309109 31.032251 0 1 -10.1638,-6.1148 12.464487,12.464487 96.882283 0 1 1.5701,-13.0081 l 32.073,-44.01876 9.273,12.36401 a 7.405825,7.405825 179.75718 0 0 11.8868,-0.0504 l 18.8247,-25.54787 a 13.640949,13.640949 151.14942 0 1 10.0099,-5.51449 z"
       sodipodi:nodetypes="ccccccccc"
       inkscape:path-effect="#path-effect27"
       inkscape:original-d="m 1272.802,963.50065 14.2339,-1.01668 35.7021,67.57873 -9.2683,13.7562 -114.8295,1.1964 -6.481,-12.536 36.9253,-50.67826 15.2503,20.33366 z"
       transform="matrix(2.0513215,0,0,2.0513215,-657.01299,-791.01822)" /></g></svg>
