<?xml version="1.0" encoding="UTF-8" standalone="no"?>
<!-- Created with Inkscape (http://www.inkscape.org/) -->

<svg
   width="189.7334"
   height="151.56934"
   viewBox="0 0 189.7334 151.56934"
   version="1.1"
   id="svg1"
   xml:space="preserve"
   xmlns="http://www.w3.org/2000/svg"
   xmlns:svg="http://www.w3.org/2000/svg"><defs
     id="defs1" /><g
     id="layer1"
     transform="translate(-7069.3667,-2827.4087)"><path
       id="path69"
       style="fill:#50c878;fill-opacity:1;stroke-width:0.999999"
       d="m 7090.843,2834.248 c -0.091,8.8867 -0.7568,74.1821 -0.9335,91.5066 -0.1769,17.3245 20.0969,27.0343 23.3434,27.0785 3.2467,0.044 126.0446,1.7149 137.2598,1.8674 11.2154,0.1527 11.683,24.2774 0,24.2774 -11.683,0 -128.8562,0 -128.8562,0 -28.9684,0 -52.2895,-23.3211 -52.2895,-52.2896 0,0 0,-83.0916 0,-92.4403 0,-9.3486 21.5666,-8.8866 21.476,0 z" /><path
       style="fill:#277c43;fill-opacity:1;stroke:none;stroke-width:1.00634;stroke-opacity:1"
       d="m 1160.6641,1080.5501 40.029,-39.1511 a 13.218193,13.218193 1.3050817 0 1 18.9057,0.4307 l 11.3699,12.182 a 10.960596,10.960596 0.53279963 0 0 15.8851,0.1477 l 31.3625,-32.3741 a 10.851048,10.851048 0.36361695 0 1 15.6825,0.1 l 0.9234,0.9777 a 12.690912,12.690912 91.163429 0 1 -0.3614,17.7951 l -46.4696,45.3632 a 12.450154,12.450154 179.84263 0 1 -17.3447,0.048 l -14.3127,-13.8192 a 9.4263794,9.4263794 0.31577252 0 0 -13.0199,-0.072 l -26.2953,24.8344 a 11.798895,11.798895 0.81818412 0 1 -16.4444,-0.2349 11.411261,11.411261 90.317514 0 1 0.09,-16.2269 z"
       id="path70"
       transform="matrix(0.99370572,0,0,0.99370572,5956.7761,1827.5239)" /></g></svg>
