<?xml version="1.0" encoding="UTF-8" standalone="no"?>
<!-- Created with Inkscape (http://www.inkscape.org/) -->

<svg
   width="133.63338mm"
   height="135.46666mm"
   viewBox="0 0 505.07105 511.99998"
   version="1.1"
   id="svg1"
   xml:space="preserve"
   inkscape:version="1.3.2 (091e20e, 2023-11-25, custom)"
   sodipodi:docname="icons.svg"
   xmlns:inkscape="http://www.inkscape.org/namespaces/inkscape"
   xmlns:sodipodi="http://sodipodi.sourceforge.net/DTD/sodipodi-0.dtd"
   xmlns="http://www.w3.org/2000/svg"
   xmlns:svg="http://www.w3.org/2000/svg"><sodipodi:namedview
     id="namedview1"
     pagecolor="#ffffff"
     bordercolor="#000000"
     borderopacity="0.25"
     inkscape:showpageshadow="2"
     inkscape:pageopacity="0.0"
     inkscape:pagecheckerboard="0"
     inkscape:deskcolor="#ffffff"
     inkscape:document-units="mm"
     inkscape:zoom="0.21820555"
     inkscape:cx="1205.2855"
     inkscape:cy="268.09583"
     inkscape:window-width="1366"
     inkscape:window-height="705"
     inkscape:window-x="-8"
     inkscape:window-y="-8"
     inkscape:window-maximized="1"
     inkscape:current-layer="layer4" /><defs
     id="defs1"><inkscape:path-effect
       effect="fillet_chamfer"
       id="path-effect23"
       is_visible="true"
       lpeversion="1"
       nodesatellites_param="F,0,0,1,0,0,0,1 @ F,0,0,1,0,19.166657,0,1 @ F,0,0,1,0,16.837247,0,1 @ F,0,0,1,0,0,0,1"
       radius="0"
       unit="px"
       method="auto"
       mode="F"
       chamfer_steps="1"
       flexible="false"
       use_knot_distance="true"
       apply_no_radius="true"
       apply_with_radius="true"
       only_selected="false"
       hide_knots="false" /></defs><g
     inkscape:groupmode="layer"
     id="layer3"
     inkscape:label="Layer 3"
     transform="matrix(1.2024342,0,0,1.2024342,-1230.5286,-29.93436)"
     style="stroke-width:0.831646"
     inkscape:export-filename="seo.svg"
     inkscape:export-xdpi="96"
     inkscape:export-ydpi="96"><path
       style="opacity:1;fill:#f4405e;fill-opacity:1;stroke:none;stroke-width:1.16215;stroke-opacity:1"
       id="rect22"
       width="281.12863"
       height="75.430046"
       x="1092.7798"
       y="-682.60284"
       transform="matrix(0.50331728,0.5088819,-0.51403284,0.49776058,406.72337,58.730785)"
       inkscape:path-effect="#path-effect23"
       sodipodi:type="rect"
       d="m 1092.7798,-682.60284 h 261.962 a 19.166657,19.166657 45 0 1 19.1666,19.16665 v 39.42614 a 16.837247,16.837247 135 0 1 -16.8372,16.83725 h -264.2914 z" /><path
       id="path22"
       style="opacity:1;fill:#fba9b5;fill-opacity:1;stroke:none;stroke-width:0.831646;stroke-opacity:1"
       d="M 1182.1972,24.894764 A 158.8325,158.8325 0 0 0 1023.3646,183.72727 158.8325,158.8325 0 0 0 1182.1972,342.55978 158.8325,158.8325 0 0 0 1341.0297,183.72727 158.8325,158.8325 0 0 0 1182.1972,24.894764 Z m 0,50.202728 A 108.62915,108.62915 0 0 1 1290.8269,183.72727 108.62915,108.62915 0 0 1 1182.1972,292.35549 108.62915,108.62915 0 0 1 1073.569,183.72727 108.62915,108.62915 0 0 1 1182.1972,75.097492 Z" /></g></svg>
