<?xml version="1.0" encoding="UTF-8" standalone="no"?>
<!-- Created with Inkscape (http://www.inkscape.org/) -->

<svg
   width="135.46666mm"
   height="98.70472mm"
   viewBox="0 0 511.99999 373.05721"
   version="1.1"
   id="svg1"
   xml:space="preserve"
   xmlns:inkscape="http://www.inkscape.org/namespaces/inkscape"
   xmlns:sodipodi="http://sodipodi.sourceforge.net/DTD/sodipodi-0.dtd"
   xmlns="http://www.w3.org/2000/svg"
   xmlns:svg="http://www.w3.org/2000/svg"><sodipodi:namedview
     id="namedview1"
     pagecolor="#ffffff"
     bordercolor="#000000"
     borderopacity="0.25"
     inkscape:showpageshadow="2"
     inkscape:pageopacity="0.0"
     inkscape:pagecheckerboard="0"
     inkscape:deskcolor="#ffffff"
     inkscape:document-units="mm" /><defs
     id="defs1" /><g
     inkscape:groupmode="layer"
     id="layer6"
     inkscape:label="Layer 6"
     transform="translate(-3323.4642,-31.922384)"><path
       id="path32"
       style="opacity:1;fill:#c6b1fb;fill-opacity:1;stroke-width:0.999996"
       d="m 3668.1049,153.77448 c -2.2243,0 -4.432,0.062 -6.6328,0.1401 0.3032,3.2331 0.5056,6.4904 0.5056,9.7877 0,66.999 -59.8158,129.5444 -139.7834,132.4257 6.0279,64.2638 66.8391,106.9495 145.9106,106.9495 26.7837,0 200.1729,6.3224 161.8565,-4.0861 -50.2168,-13.6411 -11.483,-73.9241 -11.483,-120.5655 0,-68.8439 -67.3238,-124.6518 -150.3735,-124.6518 z"
       sodipodi:nodetypes="scscssss" /><path
       id="path33"
       style="opacity:1;fill:#8b5cf6;fill-opacity:1;stroke-width:0.999996"
       d="m 3641.1985,156.57518 c 0,68.8439 -67.3251,124.6527 -150.3746,124.6527 -26.7838,0 -200.1731,6.3219 -161.8567,-4.0867 50.217,-13.641 11.4818,-73.9245 11.4818,-120.566 0,-68.843896 67.3251,-124.652796 150.3749,-124.652796 83.0495,0 150.3746,55.8089 150.3746,124.652796 z"
       sodipodi:nodetypes="ssssss"
       inkscape:label="dark" /></g></svg>
