<?xml version="1.0" encoding="UTF-8" standalone="no"?>
<!-- Created with Inkscape (http://www.inkscape.org/) -->

<svg
   width="189.7334"
   height="138.24512"
   viewBox="0 0 189.7334 138.24512"
   version="1.1"
   id="svg1"
   xml:space="preserve"
   xmlns="http://www.w3.org/2000/svg"
   xmlns:svg="http://www.w3.org/2000/svg"><defs
     id="defs1" /><g
     id="layer1"
     transform="translate(-7069.6988,-2508.0307)"><path
       id="path74"
       style="fill:#50c878;fill-opacity:1;stroke-width:0.999999"
       d="m 7197.4129,2553.1857 c -0.8242,0 -1.6423,0.023 -2.4579,0.052 0.1124,1.1981 0.1874,2.4052 0.1874,3.6271 0,24.828 -22.1662,48.0057 -51.8,49.0734 2.2338,23.8144 24.7688,39.6326 54.0705,39.6326 9.9254,0 74.1787,2.3429 59.9797,-1.5142 -18.609,-5.055 -4.2553,-27.3943 -4.2553,-44.6783 0,-25.5117 -24.9484,-46.1926 -55.7244,-46.1926 z" /><path
       id="path75"
       style="fill:#277c43;fill-opacity:1;stroke-width:0.999999"
       d="m 7187.4421,2554.2236 c 0,25.5117 -24.9488,46.1929 -55.7248,46.1929 -9.9253,0 -74.1787,2.3427 -59.9797,-1.5144 18.6091,-5.055 4.2548,-27.3944 4.2548,-44.6785 0,-25.5117 24.9489,-46.193 55.7249,-46.193 30.776,0 55.7248,20.6813 55.7248,46.193 z" /></g></svg>
